<?xml version="1.0" standalone="no"?><!DOCTYPE svg PUBLIC "-//W3C//DTD SVG 1.1//EN" "http://www.w3.org/Graphics/SVG/1.1/DTD/svg11.dtd"><svg class="icon" width="32px" height="32.00px" viewBox="0 0 1024 1024" version="1.1" xmlns="http://www.w3.org/2000/svg"><path d="M707.490909 802.909091H316.509091l-20.945455-437.527273c0-9.309091 6.981818-18.618182 16.290909-18.618182 9.309091 0 18.618182 6.981818 18.618182 16.290909L349.090909 768h325.818182l18.618182-402.618182c0-9.309091 9.309091-16.290909 18.618182-16.290909s16.290909 9.309091 16.290909 18.618182l-20.945455 435.2z" fill="#8a8a8a" /><path d="M470.109091 726.109091c-9.309091 0-18.618182-6.981818-18.618182-18.618182V442.181818c0-9.309091 6.981818-18.618182 18.618182-18.618182s18.618182 6.981818 18.618182 18.618182v265.309091c-2.327273 9.309091-9.309091 18.618182-18.618182 18.618182zM553.890909 726.109091c-9.309091 0-18.618182-6.981818-18.618182-18.618182V442.181818c0-9.309091 6.981818-18.618182 18.618182-18.618182s18.618182 6.981818 18.618182 18.618182v265.309091c0 9.309091-9.309091 18.618182-18.618182 18.618182zM784.290909 318.836364H239.709091c-9.309091 0-18.618182-6.981818-18.618182-18.618182s6.981818-18.618182 18.618182-18.618182h544.581818c9.309091 0 18.618182 6.981818 18.618182 18.618182s-9.309091 18.618182-18.618182 18.618182z" fill="#8a8a8a" /><path d="M567.854545 256h-114.036363c-9.309091 0-18.618182-6.981818-18.618182-18.618182s6.981818-18.618182 18.618182-18.618182h114.036363c9.309091 0 18.618182 6.981818 18.618182 18.618182s-6.981818 18.618182-18.618182 18.618182z" fill="#8a8a8a" /></svg>